<svg id="art" xmlns="http://www.w3.org/2000/svg" viewBox="0 0 399.69 70.87"><defs><style>.cls-1{fill:#939598;}.cls-2{fill:#8e489b;}</style></defs><title>5054_ARDC_Branding_Matrix_Research_Vocabularies_RGB_FA</title><path class="cls-1" d="M105.9,39.92h-2.55v6.55h-5V27.12h9.69c4.29,0,6.73,2.85,6.73,6.44a5.87,5.87,0,0,1-3.86,5.81l4,7.1h-5.72Zm1.4-8.59h-4v4.35h4a2.19,2.19,0,1,0,0-4.35Z"/><path class="cls-1" d="M123.07,32.11c4.15,0,7.17,3,7.17,7.81v.95h-10a3.34,3.34,0,0,0,3.57,2.5,5.52,5.52,0,0,0,3.42-1.19L129.13,45a9.11,9.11,0,0,1-5.85,1.86c-4.33,0-7.66-2.81-7.66-7.37A7.23,7.23,0,0,1,123.07,32.11ZM120.2,38H126a2.69,2.69,0,0,0-2.9-2.4A2.76,2.76,0,0,0,120.2,38Z"/><path class="cls-1" d="M133.1,41.6A8.75,8.75,0,0,0,138,43.46c1.33,0,1.88-.44,1.88-1.05s-1-1-2.41-1.22c-2.37-.4-5.74-.9-5.74-4.46,0-2.47,2.12-4.62,6-4.62A9.86,9.86,0,0,1,143.63,34l-1.71,3a6.26,6.26,0,0,0-4.12-1.54c-1,0-1.77.35-1.77,1s.76.87,2.24,1.13c2.38.41,5.91,1,5.91,4.7,0,2.67-2.34,4.64-6.38,4.64a10.42,10.42,0,0,1-6.55-2.15Z"/><path class="cls-1" d="M153,32.11c4.15,0,7.16,3,7.16,7.81v.95h-10a3.34,3.34,0,0,0,3.56,2.5,5.55,5.55,0,0,0,3.43-1.19L159.06,45a9.12,9.12,0,0,1-5.86,1.86c-4.32,0-7.65-2.81-7.65-7.37A7.23,7.23,0,0,1,153,32.11ZM150.13,38h5.77a2.69,2.69,0,0,0-2.9-2.4A2.76,2.76,0,0,0,150.13,38Z"/><path class="cls-1" d="M170.63,45.08a5.8,5.8,0,0,1-4.35,1.74,4.62,4.62,0,0,1-4.81-4.61c0-3.4,2.66-4.41,4.81-4.41a5.6,5.6,0,0,1,4.35,1.62V37.65c0-1.21-1-2-2.84-2a6.28,6.28,0,0,0-4,1.48l-1.6-2.81a9.88,9.88,0,0,1,6.35-2.18c3.37,0,6.53,1.25,6.53,5.6v8.76h-4.47Zm0-3.45a3.18,3.18,0,0,0-2.49-1c-1.19,0-2.24.52-2.24,1.63s1,1.62,2.24,1.62a3.12,3.12,0,0,0,2.49-1Z"/><path class="cls-1" d="M178.34,32.46h4.47v1.77a6.12,6.12,0,0,1,4.38-2.12v4.33a3.5,3.5,0,0,0-1.1-.15,4.43,4.43,0,0,0-3.28,1.31v8.87h-4.47Z"/><path class="cls-1" d="M196,32.11a6.7,6.7,0,0,1,5.74,2.59l-2.9,2.69a3.06,3.06,0,0,0-2.64-1.33,3.17,3.17,0,0,0-3.28,3.39,3.2,3.2,0,0,0,3.28,3.43,3.17,3.17,0,0,0,2.64-1.37l2.9,2.73A6.77,6.77,0,0,1,196,46.82c-4.38,0-7.66-3-7.66-7.37S191.57,32.11,196,32.11Z"/><path class="cls-1" d="M213.23,38.32c0-1.71-.9-2.26-2.32-2.26a3.42,3.42,0,0,0-2.69,1.36v9h-4.47V27.12h4.47v7.05a6.34,6.34,0,0,1,4.84-2.06c3.19,0,4.64,1.8,4.64,4.38v10h-4.47Z"/><path class="cls-1" d="M226.43,27.12h5.65l4.76,14,4.78-14h5.66L240,46.47h-6.26Z"/><path class="cls-1" d="M245.91,39.45a7.23,7.23,0,0,1,7.63-7.34c4.82,0,7.66,3.4,7.66,7.34a7.65,7.65,0,0,1-15.29,0Zm10.71,0a3.09,3.09,0,0,0-3.08-3.39c-1.94,0-3,1.54-3,3.39s1.08,3.43,3,3.43S256.62,41.34,256.62,39.45Z"/><path class="cls-1" d="M270.27,32.11A6.72,6.72,0,0,1,276,34.7l-2.9,2.69a3.06,3.06,0,0,0-2.64-1.33,3.16,3.16,0,0,0-3.28,3.39,3.27,3.27,0,0,0,5.92,2.06l2.9,2.73a6.79,6.79,0,0,1-5.75,2.58c-4.38,0-7.65-3-7.65-7.37S265.89,32.11,270.27,32.11Z"/><path class="cls-1" d="M286.31,45.08A5.8,5.8,0,0,1,282,46.82a4.62,4.62,0,0,1-4.81-4.61c0-3.4,2.66-4.41,4.81-4.41a5.6,5.6,0,0,1,4.35,1.62V37.65c0-1.21-1-2-2.84-2a6.28,6.28,0,0,0-4,1.48l-1.6-2.81a9.88,9.88,0,0,1,6.35-2.18c3.37,0,6.53,1.25,6.53,5.6v8.76h-4.47Zm0-3.45a3.18,3.18,0,0,0-2.49-1c-1.19,0-2.24.52-2.24,1.63s1.05,1.62,2.24,1.62a3.12,3.12,0,0,0,2.49-1Z"/><path class="cls-1" d="M294,27.12h4.47v7a5.15,5.15,0,0,1,4.15-2c3.48,0,6.18,2.76,6.18,7.34,0,4.76-2.73,7.37-6.18,7.37a5.36,5.36,0,0,1-4.15-2v1.62H294Zm7.14,15.76a3.11,3.11,0,0,0,3.1-3.43,3.09,3.09,0,0,0-3.1-3.39,3.57,3.57,0,0,0-2.67,1.27v4.3A3.56,3.56,0,0,0,301.16,42.88Z"/><path class="cls-1" d="M320.62,44.79a6.37,6.37,0,0,1-4.85,2c-3.19,0-4.61-1.8-4.61-4.38v-10h4.47v8.15c0,1.68.87,2.27,2.32,2.27a3.34,3.34,0,0,0,2.67-1.37v-9h4.47v14h-4.47Z"/><path class="cls-1" d="M328.33,27.12h4.47V46.47h-4.47Z"/><path class="cls-1" d="M344.31,45.08A5.8,5.8,0,0,1,340,46.82a4.63,4.63,0,0,1-4.82-4.61c0-3.4,2.67-4.41,4.82-4.41a5.6,5.6,0,0,1,4.35,1.62V37.65c0-1.21-1-2-2.84-2a6.33,6.33,0,0,0-4,1.48l-1.59-2.81a9.86,9.86,0,0,1,6.35-2.18c3.37,0,6.53,1.25,6.53,5.6v8.76h-4.47Zm0-3.45a3.18,3.18,0,0,0-2.49-1c-1.19,0-2.24.52-2.24,1.63s1.05,1.62,2.24,1.62a3.12,3.12,0,0,0,2.49-1Z"/><path class="cls-1" d="M352,32.46h4.47v1.77a6.12,6.12,0,0,1,4.38-2.12v4.33a3.5,3.5,0,0,0-1.1-.15,4.43,4.43,0,0,0-3.28,1.31v8.87H352Z"/><path class="cls-1" d="M362.58,28.14a2.55,2.55,0,1,1,2.55,2.55A2.54,2.54,0,0,1,362.58,28.14Zm.32,4.32h4.46v14H362.9Z"/><path class="cls-1" d="M377.14,32.11c4.15,0,7.16,3,7.16,7.81v.95h-10a3.35,3.35,0,0,0,3.57,2.5,5.5,5.5,0,0,0,3.42-1.19L383.2,45a9.12,9.12,0,0,1-5.86,1.86c-4.32,0-7.66-2.81-7.66-7.37A7.24,7.24,0,0,1,377.14,32.11ZM374.27,38H380a2.69,2.69,0,0,0-2.9-2.4A2.76,2.76,0,0,0,374.27,38Z"/><path class="cls-1" d="M387.17,41.6a8.72,8.72,0,0,0,4.93,1.86c1.34,0,1.89-.44,1.89-1.05s-1-1-2.41-1.22c-2.38-.4-5.74-.9-5.74-4.46,0-2.47,2.11-4.62,6-4.62A9.89,9.89,0,0,1,397.7,34l-1.71,3a6.28,6.28,0,0,0-4.12-1.54c-1.05,0-1.77.35-1.77,1s.75.87,2.23,1.13c2.38.41,5.92,1,5.92,4.7,0,2.67-2.35,4.64-6.38,4.64a10.42,10.42,0,0,1-6.56-2.15Z"/><path class="cls-1" d="M110.75,66.54h-8l-1,2.93H96.3l7.28-19.35h6.27l7.31,19.35h-5.42ZM104,62.34h5.42l-2.72-7.86Z"/><path class="cls-1" d="M127.51,67.79a6.35,6.35,0,0,1-4.84,2c-3.19,0-4.62-1.8-4.62-4.38v-10h4.47v8.15c0,1.68.87,2.27,2.32,2.27a3.34,3.34,0,0,0,2.67-1.37V55.46H132v14h-4.47Z"/><path class="cls-1" d="M135.89,64.6a8.72,8.72,0,0,0,4.93,1.86c1.33,0,1.89-.44,1.89-1s-1-1-2.41-1.22c-2.38-.4-5.75-.9-5.75-4.46,0-2.47,2.12-4.62,6-4.62A9.89,9.89,0,0,1,146.42,57l-1.71,3a6.28,6.28,0,0,0-4.12-1.54c-1.05,0-1.77.35-1.77,1s.75.87,2.23,1.13c2.38.41,5.92,1,5.92,4.7,0,2.67-2.35,4.64-6.38,4.64A10.42,10.42,0,0,1,134,67.67Z"/><path class="cls-1" d="M150.19,65.7V59.35h-2.32V55.46h2.32V51.63h4.43v3.83h2.85v3.89h-2.85v5.1a1.28,1.28,0,0,0,1.25,1.43,1.75,1.75,0,0,0,1.13-.35l.87,3.36a4.87,4.87,0,0,1-3.3.93C151.72,69.82,150.19,68.4,150.19,65.7Z"/><path class="cls-1" d="M159.7,55.46h4.46v1.77a6.12,6.12,0,0,1,4.38-2.12v4.33a3.46,3.46,0,0,0-1.1-.15,4.43,4.43,0,0,0-3.28,1.31v8.87H159.7Z"/><path class="cls-1" d="M178.84,68.08a5.8,5.8,0,0,1-4.35,1.74,4.63,4.63,0,0,1-4.82-4.61c0-3.4,2.67-4.41,4.82-4.41a5.62,5.62,0,0,1,4.35,1.62V60.65c0-1.21-1.05-2-2.84-2a6.29,6.29,0,0,0-4,1.48l-1.59-2.81a9.86,9.86,0,0,1,6.35-2.18c3.36,0,6.53,1.25,6.53,5.6v8.76h-4.47Zm0-3.45a3.2,3.2,0,0,0-2.5-1c-1.18,0-2.23.52-2.23,1.63s1,1.62,2.23,1.62a3.14,3.14,0,0,0,2.5-1Z"/><path class="cls-1" d="M186.55,50.12H191V69.47h-4.47Z"/><path class="cls-1" d="M194,51.14a2.55,2.55,0,1,1,2.55,2.55A2.54,2.54,0,0,1,194,51.14Zm.31,4.32h4.47v14h-4.47Z"/><path class="cls-1" d="M210.25,68.08a5.84,5.84,0,0,1-4.36,1.74,4.62,4.62,0,0,1-4.81-4.61c0-3.4,2.67-4.41,4.81-4.41a5.64,5.64,0,0,1,4.36,1.62V60.65c0-1.21-1.05-2-2.85-2a6.28,6.28,0,0,0-4,1.48l-1.6-2.81a9.89,9.89,0,0,1,6.36-2.18c3.36,0,6.52,1.25,6.52,5.6v8.76h-4.46Zm0-3.45a3.2,3.2,0,0,0-2.5-1c-1.19,0-2.23.52-2.23,1.63s1,1.62,2.23,1.62a3.14,3.14,0,0,0,2.5-1Z"/><polygon points="105.18 1.62 98.35 18.63 103.02 18.63 104.79 18.63 106.85 11.79 106.91 11.79 106.93 11.79 108.99 18.63 110.65 18.63 115.36 18.63 108.6 1.62 105.18 1.62"/><path d="M170.94,10.12a8.5,8.5,0,0,0-8.5-8.5h-3.79v5h3.79a3.5,3.5,0,0,1,0,7h-3.79v5h3.79a8.5,8.5,0,0,0,8.5-8.51"/><path d="M185.75,10.12a8.51,8.51,0,0,1,8.5-8.5H198v5h-3.79a3.5,3.5,0,1,0,0,7H198v5h-3.79a8.51,8.51,0,0,1-8.5-8.51"/><path d="M141.65,7.48a5.88,5.88,0,0,0-2.09-4.64c-1.47-1.17-3.45-1.22-5.24-1.22h-5.38V6h5.94c1.12,0,2.1.46,2.1,1.72s-.91,1.83-2.14,1.83H130.1l6.48,9h6.47l-4.79-6a5.2,5.2,0,0,0,3.39-5.14"/><path class="cls-2" d="M81.35,29.28A27.66,27.66,0,0,1,53.68,56.94H45.33L47,52.69l4.75-12h1.9a11.4,11.4,0,0,0,0-22.8H29a11.42,11.42,0,0,0-11.4,11.4,11.11,11.11,0,0,0,.73,4,11.38,11.38,0,0,0,10.29,7.38h.22l.16.53,3.31,11h.14l2.58-8.58.89-3H46.72L42,52.69l-.61,1.55-1.07,2.7-5,12.53H29.52L24.33,56.54A27.66,27.66,0,0,1,29,1.62H53.68A27.66,27.66,0,0,1,81.35,29.28Z"/></svg>